<?xml version="1.0" encoding="UTF-8"?>
<svg version="1.1" xmlns="http://www.w3.org/2000/svg" width="480" height="480">
<path d="M0 0 C26.87638929 8.17456944 53.41408799 30.32866371 75 48 C75.85972412 48.70310303 75.85972412 48.70310303 76.73681641 49.42041016 C95.66802265 65.01609302 117.81288868 84.66409687 121.4765625 110.33984375 C121.98358038 122.62835597 118.03109424 132.91033569 113.92724609 144.36572266 C110.99278806 152.70242675 109.75354624 160.52315111 109.625 169.3125 C109.61082031 170.05419434 109.59664062 170.79588867 109.58203125 171.56005859 C109.64162989 178.20679703 110.96780369 183.82264681 115.625 188.8125 C120.0848499 192.08231514 125.31864186 194.34974237 130.875 193.625 C133.86443963 191.33895793 134.97215392 188.52608307 136 185 C136.28697583 182.06594289 136.19854877 179.19173388 136.0625 176.25 C135.74637243 168.38044135 135.74637243 168.38044135 138 165 C146.34363129 165.3476513 151.24885334 169.91542445 156.75 175.875 C159.89642592 179.62347553 162.10585247 183.50252175 164 188 C164.51240234 189.21429688 164.51240234 189.21429688 165.03515625 190.453125 C174.86966511 216.41304313 165.46012386 250.18435202 154.65258789 274.41503906 C148.66240757 287.41823146 140.45630061 299.19122259 130 309 C128.32909786 310.6624204 126.66304218 312.32971671 125 314 C123.96248878 315.03800955 122.92471846 316.07576018 121.88671875 317.11328125 C121.36142578 317.63857422 120.83613281 318.16386719 120.29492188 318.70507812 C117.86328125 321.13671875 115.43164063 323.56835937 113 326 C118.69821829 325.35998273 121.9541477 322.12991943 126.28125 318.6171875 C129 317 129 317 131.84375 317.2578125 C132.5553125 317.50273437 133.266875 317.74765625 134 318 C134.79296875 319.65234375 134.79296875 319.65234375 135 322 C133.50698196 324.08033363 132.08954848 325.75163938 130.3125 327.5625 C129.81137695 328.0877124 129.31025391 328.6129248 128.79394531 329.15405273 C127.21483524 330.7893493 125.61357955 332.39874538 124 334 C123.27659424 334.71929687 123.27659424 334.71929687 122.53857422 335.453125 C89.62631353 367.7418327 45.03946975 387.59252295 -1.02685547 387.28613281 C-48.92385034 386.50004402 -91.44122972 367.96023538 -124.69921875 333.6171875 C-132.24600509 325.54895509 -140.11684646 315.36678999 -144 305 C-143.64453125 302.6953125 -143.64453125 302.6953125 -143 301 C-140.9375 300.125 -140.9375 300.125 -138 300 C-136.1172312 301.33269621 -134.51692834 302.85146466 -132.8359375 304.4296875 C-129.36810798 307.39578849 -125.60335932 309 -121 309 C-121.4846875 308.57332031 -121.969375 308.14664062 -122.46875 307.70703125 C-137.74429511 293.45964783 -145.38341253 271.98454077 -146.24609375 251.37890625 C-146.77921589 228.26493956 -139.1723318 209.44530828 -123.44384766 192.47802734 C-119.62531154 188.56909639 -115.38130015 185.24754265 -111 182 C-110.20078125 181.39800781 -109.4015625 180.79601562 -108.578125 180.17578125 C-103.82430388 176.71916295 -98.86849609 173.6154653 -93.8125 170.625 C-92.68457031 169.95726562 -91.55664062 169.28953125 -90.39453125 168.6015625 C-86.82703631 166.91839458 -83.92289495 166.26380614 -80 166 C-79 167 -79 167 -78.734375 169.33203125 C-79.06134021 172.6161083 -79.9132059 173.42434437 -82.25 175.6875 C-87.19477771 181.00338679 -89.61130751 186.6128226 -90.4375 193.8125 C-89.93443549 197.4776843 -89.46623561 199.22548493 -87 202 C-82.2334761 204.67311813 -77.44106563 205.69249926 -72 205 C-66.39813652 202.72127587 -64.18774425 200.47880459 -61.7265625 195 C-60.27900758 191.01533269 -59.82145272 187.34515176 -59.60546875 183.109375 C-57.16586688 139.7773989 -47.26359993 94.77307404 -25 57 C-20.125 57.875 -20.125 57.875 -19 59 C-18.79578652 62.27876092 -18.6539761 65.55018796 -18.5703125 68.83398438 C-18.32461301 74.37757923 -17.28224583 78.86499583 -13.0625 82.8125 C-8.76575409 85.28638401 -4.91194527 85.09446049 0 85 C4.76069175 77.15114582 4.58738672 69.19444861 4.4375 60.3125 C4.42827011 59.2204274 4.42827011 59.2204274 4.41885376 58.10629272 C4.27723649 41.67891408 2.40326505 25.76021243 -1.44921875 9.77734375 C-1.98731337 7.06397299 -2.25299846 4.75434177 -2 2 C-1.34 1.34 -0.68 0.68 0 0 Z " fill="#FE650A" transform="translate(223,85)"/>
<path d="M0 0 C16.95607282 7.5274099 29.36250748 30.16775276 35.87890625 46.8984375 C41.02378651 61.13200868 44.35363887 73.58288954 44.3125 88.8125 C44.32861328 89.99392578 44.34472656 91.17535156 44.36132812 92.39257812 C44.36585314 100.650729 43.19467846 108.05053492 41 116 C40.79060791 116.77657959 40.58121582 117.55315918 40.36547852 118.35327148 C39.81061968 120.34827217 39.22593484 122.33093798 38.625 124.3125 C38.41367432 125.01834229 38.20234863 125.72418457 37.98461914 126.45141602 C37.32801609 128.63580449 36.66441395 130.81797633 36 133 C35.78553223 133.71188477 35.57106445 134.42376953 35.35009766 135.15722656 C31.42141455 148.18124361 31.42141455 148.18124361 28.8125 154.375 C25.3492808 162.7315937 23.33172126 171.99516377 26.25 180.75 C27.95343284 183.91351812 29.25145932 185.73281496 32 188 C40.29658778 190.06464704 46.99349619 187.12335836 54.0703125 182.95703125 C57.67294284 180.55047418 60.80104822 177.91460051 64 175 C64.66 175 65.32 175 66 175 C64.89800813 188.59123311 54.88093007 201.69503658 46.875 212.1875 C38.20068104 222.96919154 38.20068104 222.96919154 35.62890625 236.15234375 C35.87072898 238.24007802 35.87072898 238.24007802 38 240 C45.46172852 241.06596122 49.3592286 239.08207939 55.51953125 234.921875 C57.88179154 233.09158829 59.9449187 231.16526049 62 229 C62.66 229.33 63.32 229.66 64 230 C44.07666532 262.00646821 17.63297067 286.7624165 -18 300 C-18.84433594 300.37640625 -19.68867188 300.7528125 -20.55859375 301.140625 C-35.68379624 306.46469628 -56.40720709 298.28079226 -70.0625 291.75 C-76.5384458 288.40160118 -82.32865041 284.57145148 -88 280 C-88.83015625 279.33484375 -89.6603125 278.6696875 -90.515625 277.984375 C-113.22772943 258.70051275 -127.94178737 228.93768154 -133 200 C-133.22171875 199.0821875 -133.4434375 198.164375 -133.671875 197.21875 C-136.40875721 185.53152325 -136.03753024 171.80137513 -134 160 C-131.47530701 161.2623465 -131.34341224 162.19870477 -130.25 164.75 C-127.29021014 170.87786124 -122.44841415 174.73111354 -116 177 C-110.00122005 177.85819456 -104.62690167 177.91067046 -99.3125 174.75 C-86.55504689 164.82497781 -80.37684886 148.73386334 -75 134 C-74.60039062 132.94941406 -74.20078125 131.89882813 -73.7890625 130.81640625 C-70.91301387 122.77698172 -69.15153216 114.8387252 -67.625 106.4375 C-64.56687683 90.1072921 -59.32616281 78.30343466 -45.3125 68.5625 C-39.93224092 65.26200493 -34.24314235 62.87132409 -28.4375 60.4375 C-10.71494743 53.01426545 -10.71494743 53.01426545 0.05859375 37.53125 C3.95780819 26.33733294 5.03882286 13.91744952 0 3 C0 2.01 0 1.02 0 0 Z " fill="#FEDE5E" transform="translate(259,167)"/>
<path d="M0 0 C26.87638929 8.17456944 53.41408799 30.32866371 75 48 C75.85972412 48.70310303 75.85972412 48.70310303 76.73681641 49.42041016 C95.66802265 65.01609302 117.81288868 84.66409687 121.4765625 110.33984375 C121.98358038 122.62835597 118.03109424 132.91033569 113.92724609 144.36572266 C110.99278806 152.70242675 109.75354624 160.52315111 109.625 169.3125 C109.61082031 170.05419434 109.59664062 170.79588867 109.58203125 171.56005859 C109.64162989 178.20679703 110.96780369 183.82264681 115.625 188.8125 C120.0848499 192.08231514 125.31864186 194.34974237 130.875 193.625 C133.86443963 191.33895793 134.97215392 188.52608307 136 185 C136.28697583 182.06594289 136.19854877 179.19173388 136.0625 176.25 C135.74637243 168.38044135 135.74637243 168.38044135 138 165 C146.34363129 165.3476513 151.24885334 169.91542445 156.75 175.875 C159.89642592 179.62347553 162.10585247 183.50252175 164 188 C164.51240234 189.21429688 164.51240234 189.21429688 165.03515625 190.453125 C174.86966511 216.41304313 165.46012386 250.18435202 154.65258789 274.41503906 C148.66240757 287.41823146 140.45630061 299.19122259 130 309 C128.32909786 310.6624204 126.66304218 312.32971671 125 314 C123.96248878 315.03800955 122.92471846 316.07576018 121.88671875 317.11328125 C121.36142578 317.63857422 120.83613281 318.16386719 120.29492188 318.70507812 C117.86328125 321.13671875 115.43164063 323.56835937 113 326 C118.69821829 325.35998273 121.9541477 322.12991943 126.28125 318.6171875 C129 317 129 317 131.84375 317.2578125 C132.5553125 317.50273437 133.266875 317.74765625 134 318 C134.79296875 319.65234375 134.79296875 319.65234375 135 322 C133.50698196 324.08033363 132.08954848 325.75163938 130.3125 327.5625 C129.81137695 328.0877124 129.31025391 328.6129248 128.79394531 329.15405273 C127.21483524 330.7893493 125.61357955 332.39874538 124 334 C123.27659424 334.71929687 123.27659424 334.71929687 122.53857422 335.453125 C89.62631353 367.7418327 45.03946975 387.59252295 -1.02685547 387.28613281 C-48.92385034 386.50004402 -91.44122972 367.96023538 -124.69921875 333.6171875 C-132.24600509 325.54895509 -140.11684646 315.36678999 -144 305 C-143.64453125 302.6953125 -143.64453125 302.6953125 -143 301 C-140.9375 300.125 -140.9375 300.125 -138 300 C-136.1172312 301.33269621 -134.51692834 302.85146466 -132.8359375 304.4296875 C-129.36810798 307.39578849 -125.60335932 309 -121 309 C-121.4846875 308.57332031 -121.969375 308.14664062 -122.46875 307.70703125 C-137.74429511 293.45964783 -145.38341253 271.98454077 -146.24609375 251.37890625 C-146.77921589 228.26493956 -139.1723318 209.44530828 -123.44384766 192.47802734 C-119.62531154 188.56909639 -115.38130015 185.24754265 -111 182 C-110.20078125 181.39800781 -109.4015625 180.79601562 -108.578125 180.17578125 C-103.82430388 176.71916295 -98.86849609 173.6154653 -93.8125 170.625 C-92.68457031 169.95726562 -91.55664062 169.28953125 -90.39453125 168.6015625 C-86.82703631 166.91839458 -83.92289495 166.26380614 -80 166 C-79 167 -79 167 -78.734375 169.33203125 C-79.06134021 172.6161083 -79.9132059 173.42434437 -82.25 175.6875 C-87.19477771 181.00338679 -89.61130751 186.6128226 -90.4375 193.8125 C-89.93443549 197.4776843 -89.46623561 199.22548493 -87 202 C-82.2334761 204.67311813 -77.44106563 205.69249926 -72 205 C-66.39813652 202.72127587 -64.18774425 200.47880459 -61.7265625 195 C-60.27900758 191.01533269 -59.82145272 187.34515176 -59.60546875 183.109375 C-57.16586688 139.7773989 -47.26359993 94.77307404 -25 57 C-20.125 57.875 -20.125 57.875 -19 59 C-18.79578652 62.27876092 -18.6539761 65.55018796 -18.5703125 68.83398438 C-18.32461301 74.37757923 -17.28224583 78.86499583 -13.0625 82.8125 C-8.76575409 85.28638401 -4.91194527 85.09446049 0 85 C4.76069175 77.15114582 4.58738672 69.19444861 4.4375 60.3125 C4.42827011 59.2204274 4.42827011 59.2204274 4.41885376 58.10629272 C4.27723649 41.67891408 2.40326505 25.76021243 -1.44921875 9.77734375 C-1.98731337 7.06397299 -2.25299846 4.75434177 -2 2 C-1.34 1.34 -0.68 0.68 0 0 Z M7 11 C7.32241526 17.29265646 7.83677322 23.40518341 9.14477539 29.57714844 C11.21433788 39.72296384 11.33565107 49.81081 11.375 60.125 C11.38258331 60.89724915 11.39016663 61.66949829 11.39797974 62.46514893 C11.4859546 73.52941958 10.71690325 81.82023222 4 91 C2.32588146 92.67411854 0.36225375 92.29113801 -1.9375 92.375 C-7.45911633 92.35340307 -11.15524261 90.89855494 -15.90625 88.19140625 C-18.07718196 86.86630555 -18.07718196 86.86630555 -21 86 C-22.0625 83.6875 -22.0625 83.6875 -23 81 C-23.65213539 79.65949948 -24.31379969 78.32338632 -25 77 C-25.66 77 -26.32 77 -27 77 C-30.64620052 85.06705171 -33.90785156 93.22182972 -36.875 101.5625 C-37.1851001 102.41875977 -37.4952002 103.27501953 -37.81469727 104.15722656 C-39.83692503 109.92440521 -39.83692503 109.92440521 -40 116 C-40.66 116 -41.32 116 -42 116 C-47.46117094 137.09500399 -51.99228504 158.02265893 -52.375 179.875 C-52.55044111 188.94384315 -53.49020358 195.50306388 -59 203 C-59.6290625 203.8765625 -60.258125 204.753125 -60.90625 205.65625 C-64.68771626 209.88923462 -69.81811651 211.47323334 -75.3359375 212.38671875 C-82.03738158 212.72766941 -87.79939821 210.73960977 -92.8984375 206.375 C-97.23573262 201.48790691 -97.60491272 197.12469241 -97.40625 190.734375 C-97 188 -97 188 -95.90625 185.890625 C-94.7782251 184.00185692 -94.7782251 184.00185692 -95.375 181.75 C-95.58125 181.1725 -95.7875 180.595 -96 180 C-105.97868682 184.68135925 -113.32258199 192.259549 -121 200 C-121.86044922 200.84691406 -121.86044922 200.84691406 -122.73828125 201.7109375 C-136.08750795 215.82203073 -139.75445114 232.78056949 -139.27734375 251.6640625 C-138.77170548 263.63573032 -135.11893149 274.233878 -130.71875 285.26171875 C-130.46029297 285.91100342 -130.20183594 286.56028809 -129.93554688 287.22924805 C-128.88557568 289.21657608 -127.61845146 290.45577222 -126 292 C-125.3503125 293.11375 -125.3503125 293.11375 -124.6875 294.25 C-121.56749066 299.33445966 -117.87028212 303.39781215 -113.125 307 C-110.11434928 309.44822146 -110.03372726 309.70127288 -109.5625 313.875 C-109.7790625 315.421875 -109.7790625 315.421875 -110 317 C-117.31110994 317.3689719 -123.21256822 316.81552726 -130 314 C-129.73323796 315.98491642 -129.73323796 315.98491642 -129 318 C-128.01 318.33 -127.02 318.66 -126 319 C-125.87109375 319.5671875 -125.7421875 320.134375 -125.609375 320.71875 C-121.77361419 335.07826483 -96.26017774 351.39153332 -84.39306641 358.40136719 C-75.59415568 363.46398749 -66.45412072 367.34197473 -57 371 C-56.12859375 371.36222656 -55.2571875 371.72445313 -54.359375 372.09765625 C-46.84263897 374.97243444 -38.7882277 376.28302825 -30.87109375 377.5390625 C-24.58396906 378.54842401 -18.44403903 379.84165934 -12.3125 381.5625 C0.14828003 385.00355223 10.97596346 385.34957311 22.94921875 380.23046875 C26.42708299 378.82774502 29.73463492 378.15899016 33.41015625 377.515625 C41.69673908 375.8658076 49.56467221 372.97557585 57.171875 369.34375 C59.52597484 368.22522743 61.89140044 367.17485163 64.28125 366.13671875 C68.90466344 364.08772777 73.33478021 361.77463776 77.75 359.3125 C78.52351807 358.88259766 79.29703613 358.45269531 80.09399414 358.00976562 C87.0469372 354.08468237 93.53552093 349.67943571 100 345 C100.99 344.34 101.98 343.68 103 343 C103 342.34 103 341.68 103 341 C103.763125 340.7525 104.52625 340.505 105.3125 340.25 C108.2364045 338.89004442 109.30004356 337.68414174 111 335 C110.38125 334.505 109.7625 334.01 109.125 333.5 C106.25011778 330.11778563 105.86548583 327.32742915 105 323 C105.66 323 106.32 323 107 323 C108.39582572 321.58023447 108.39582572 321.58023447 109.875 319.6875 C113.59965241 315.26694651 117.74536728 311.47892309 122.08740234 307.68237305 C123.42652213 306.49311018 124.71789914 305.25052203 126 304 C126 303.34 126 302.68 126 302 C126.66 302 127.32 302 128 302 C149.53504556 279.6909676 161.60534154 247.11427987 161.3581543 216.27319336 C160.91729515 202.14093323 158.13689469 187.81659895 148.375 177.125 C146.28273409 174.77773505 146.28273409 174.77773505 144 175 C143.98582031 175.66644531 143.97164063 176.33289063 143.95703125 177.01953125 C143.57932322 184.31848363 142.11613446 190.84658687 138 197 C133.10257397 200.68917948 128.90624896 200.6406481 123 200 C116.90484789 198.75786 113.10014854 196.82370417 109 192 C108.49549316 191.53770996 107.99098633 191.07541992 107.47119141 190.59912109 C102.60999997 185.31521736 102.51091985 177.16110106 102.625 170.375 C102.63297607 169.50907227 102.64095215 168.64314453 102.64916992 167.75097656 C102.88273744 157.05614675 104.85539092 146.88190638 109 137 C114.06019099 124.81299348 116.71086189 112.34706951 111.65234375 99.60546875 C107.82127926 91.96952016 103.70076986 85.43055301 98 79 C97.25363281 78.13375 96.50726563 77.2675 95.73828125 76.375 C91.96737347 72.07270793 88.17390802 68.02810314 83.703125 64.44921875 C82 63 82 63 79.6875 60.671875 C67.20514308 48.24425911 67.20514308 48.24425911 52 40 C52 39.34 52 38.68 52 38 C51.01 37.4534375 50.02 36.906875 49 36.34375 C44.11161414 33.55038665 39.56273072 30.30176662 34.9609375 27.06640625 C30.74569436 24.12875611 26.49224499 21.49456494 22 19 C20.76174443 18.28867566 19.52478132 17.57509714 18.2890625 16.859375 C17.68449219 16.51132813 17.07992187 16.16328125 16.45703125 15.8046875 C15.21131661 15.08753835 13.96655841 14.36872582 12.72265625 13.6484375 C10.02477298 11.80516832 10.02477298 11.80516832 7 11 Z " fill="#F63413" transform="translate(223,85)"/>
<path d="M0 0 C0 3.58088568 -1.01049245 5.84990543 -2.3125 9.1875 C-10.19355336 30.50744073 -10.9500708 56.76079353 -2 78 C1.89294393 86.8181984 1.89294393 86.8181984 8 94 C10.95720628 94.66680368 10.95720628 94.66680368 14 94 C18.10037517 90.26142264 19.93251508 85.04774243 22 80 C22.33 80 22.66 80 23 80 C23.65646463 90.99942954 22.53409324 100.73781205 19.77856445 111.42236328 C18.49298183 116.4519475 17.71534498 120.80504582 18 126 C25.60993168 125.07758404 30.31390265 121.13206876 34.93359375 115.390625 C35.46146484 114.70226562 35.46146484 114.70226562 36 114 C37.56546092 117.95328423 36.37482341 121.20251408 35.125 125.0625 C34.90303955 125.75424316 34.6810791 126.44598633 34.45239258 127.15869141 C28.78731443 144.03203572 20.69693959 161.88775283 4.77734375 171.31640625 C-2.29053486 174.79579075 -7.96798227 174.83029771 -15.375 172.5 C-32.53659291 165.659034 -42.90251501 148.17935859 -49.90771484 131.88916016 C-50.78011941 129.76950097 -51.61930718 127.64113769 -52.4375 125.5 C-52.68467773 124.85377686 -52.93185547 124.20755371 -53.18652344 123.54174805 C-54.71246101 119.33888932 -55.50515261 115.41381124 -56 111 C-55.32453125 111.37253906 -54.6490625 111.74507813 -53.953125 112.12890625 C-52.61507812 112.83853516 -52.61507812 112.83853516 -51.25 113.5625 C-49.92742187 114.27599609 -49.92742187 114.27599609 -48.578125 115.00390625 C-45.79298812 116.07998186 -44.73019786 116.06528748 -42 115 C-43.49891323 111.99322481 -45.00467948 108.99085536 -46.53515625 106 C-47.03917969 105.01 -47.54320312 104.02 -48.0625 103 C-48.56910156 102.01 -49.07570312 101.02 -49.59765625 100 C-52.03439566 94.78714243 -53.26731824 90.52593816 -53.1875 84.75 C-53.18105469 83.71359375 -53.17460937 82.6771875 -53.16796875 81.609375 C-53 79 -53 79 -52 77 C-51.34 77 -50.68 77 -50 77 C-49.443125 78.134375 -48.88625 79.26875 -48.3125 80.4375 C-46.5777124 83.55468831 -46.5777124 83.55468831 -43.25 84.9375 C-42.5075 84.958125 -41.765 84.97875 -41 85 C-37.32297285 79.40452391 -36.90928402 74.38414003 -36.40576172 67.85620117 C-34.32489445 41.81742927 -25.38908152 21.73352776 -6 4 C-4.04025769 2.49041632 -2.143014 1.24069232 0 0 Z " fill="#FEFEFC" transform="translate(238,295)"/>
<path d="M0 0 C0.66 0.33 1.32 0.66 2 1 C-2.29 5.29 -6.58 9.58 -11 14 C-11.66 13.67 -12.32 13.34 -13 13 C-9.13242719 8.04467233 -4.81123996 4.03523352 0 0 Z " fill="#F8624A" transform="translate(109,269)"/>
<path d="M0 0 C1.32 0.33 2.64 0.66 4 1 C3.01 1.66 2.02 2.32 1 3 C0.41407366 6.11610554 0.41407366 6.11610554 0.3125 9.625 C0.24675781 10.81351562 0.18101562 12.00203125 0.11328125 13.2265625 C0.07589844 14.14179688 0.03851563 15.05703125 0 16 C-0.33 16 -0.66 16 -1 16 C-1.22197585 13.89722877 -1.42713637 11.79267698 -1.625 9.6875 C-1.74101562 8.51574219 -1.85703125 7.34398437 -1.9765625 6.13671875 C-2 3 -2 3 0 0 Z " fill="#F86048" transform="translate(361,250)"/>
</svg>
